<svg width="80" height="80" viewBox="0 0 80 80" fill="none" xmlns="http://www.w3.org/2000/svg">
<path d="M0 40V0H20.9153H41.8306L42.4712 0.563378C43.5648 1.5251 47.1847 5.30357 47.5407 5.85504C47.7267 6.14307 47.9276 6.37874 47.9872 6.37874C48.0467 6.37874 48.1703 6.51973 48.2617 6.69206C48.3531 6.86437 48.6163 7.23814 48.8466 7.52262C49.8668 8.78275 51.9504 11.9022 52.7013 13.2934L53.2727 14.3521H33.7028H14.1329V39.9335V65.5149H32.7391C42.9725 65.5149 51.3452 65.5469 51.3452 65.5861C51.3452 65.6667 50.9354 66.3438 50.8252 66.4452C50.7854 66.4817 50.4633 66.9302 50.1092 67.4419C48.3719 69.9523 47.5284 70.9953 45.5313 73.1022C43.7727 74.9574 42.5284 76.1463 41.3023 77.1429C41.0325 77.3621 40.5629 77.7508 40.2587 78.0066C39.9546 78.2625 39.2244 78.8156 38.6361 79.2359L37.5664 80H18.7832H0V40ZM42.9185 79.9003C42.9191 79.8454 43.2546 79.572 43.664 79.2926C47.2472 76.8471 50.6994 73.5954 54.1978 69.3707C54.5186 68.9832 54.8663 68.5401 54.9704 68.3862C55.0744 68.2322 55.2203 68.04 55.2946 67.959C55.3688 67.878 55.7949 67.2949 56.2415 66.6633L57.0535 65.5149H65.026H72.9984V72.7574V80H57.9579C49.6856 80 42.9179 79.955 42.9185 79.9003ZM77.6496 79.5681C77.6403 79.3305 77.626 61.3305 77.6172 39.5681L77.6013 0H78.8006H80V40V80H78.8331H77.6661L77.6496 79.5681ZM17.7954 40.299L17.8282 17.8737L24.964 17.8394L32.0998 17.805L32.6139 18.7573C32.8967 19.281 33.2846 19.9841 33.476 20.3198C33.6674 20.6555 33.9765 21.2292 34.1629 21.5946C34.8275 22.8977 35.4104 23.9888 36.3282 25.6478C36.5102 25.9767 36.9944 26.9036 37.4043 27.7076C37.8141 28.5116 38.195 29.2292 38.2506 29.3023C38.3793 29.4716 38.6841 30.0352 39.5441 31.6943C39.9229 32.4252 40.4646 33.4418 40.7478 33.9534C41.4095 35.1488 41.9011 36.0718 42.6199 37.468C43.5307 39.2372 43.4729 39.1956 43.8807 38.3764C44.0729 37.9903 44.4314 37.3156 44.6774 36.877C44.9233 36.4385 45.2172 35.873 45.3305 35.6203C45.4438 35.3676 45.7729 34.7397 46.0619 34.2249C46.7308 33.0335 46.9988 32.5329 47.8437 30.897C48.2212 30.1661 48.5744 29.5083 48.6286 29.4352C48.6827 29.3621 48.8688 29.0332 49.0419 28.7043C49.2151 28.3754 49.5489 27.7475 49.7836 27.3089C50.0184 26.8704 50.5023 25.9435 50.859 25.2491C51.2157 24.5548 51.608 23.8372 51.7308 23.6544C51.8536 23.4717 52.304 22.6345 52.7317 21.794C53.6635 19.9627 54.8429 17.8073 54.913 17.8073C54.9875 17.8073 55.3475 18.6344 56.0988 20.5315C56.3799 21.2414 57.1126 23.3949 57.2517 23.9202C57.2807 24.0298 57.4572 24.6877 57.6439 25.382C58.2636 27.6874 58.7503 30.3451 58.9944 32.7574C59.061 33.4152 59.1562 34.3421 59.206 34.8172C59.3255 35.9568 59.3299 40.5972 59.2127 41.8604C58.6492 47.9332 57.6881 52.1848 55.8075 56.9237C55.0127 58.9265 53.2665 62.5015 53.1652 62.3334C53.1202 62.2589 53.0889 58.3694 53.0956 53.6903C53.1022 49.0111 53.0708 45.1827 53.0256 45.1827C52.9805 45.1827 52.7752 45.5265 52.5695 45.9468C52.3637 46.3671 51.9953 47.0697 51.7507 47.5082C51.5061 47.9468 51.1649 48.5747 50.9924 48.9036C50.8199 49.2325 50.4794 49.8604 50.2357 50.299C49.9921 50.7375 49.6643 51.3654 49.5074 51.6943C49.3505 52.0232 48.9708 52.7212 48.6636 53.2454C48.3563 53.7696 48.0417 54.3377 47.9643 54.5078C47.8869 54.678 47.6264 55.176 47.3854 55.6146C47.1444 56.0531 46.838 56.6212 46.7045 56.877C46.571 57.1328 46.2815 57.671 46.0613 58.073C45.841 58.475 45.2807 59.5215 44.8163 60.3986C44.3518 61.2757 43.8831 62.1578 43.7747 62.3587C43.6663 62.5597 43.5223 62.7242 43.4547 62.7242C43.387 62.7242 43.2693 62.5597 43.1931 62.3587C43.1168 62.1578 42.842 61.6046 42.5824 61.1295C41.1786 58.561 40.7189 57.6963 39.9548 56.187C39.5733 55.4336 39.1869 54.7275 39.0959 54.6179C39.005 54.5083 38.5101 53.5869 37.9962 52.5705C37.4824 51.554 36.9697 50.5781 36.8569 50.4017C36.6282 50.0439 36.3629 49.557 35.8598 48.5714C35.6732 48.2059 35.3244 47.5481 35.0845 47.1096C34.8447 46.6711 34.5285 46.0581 34.3818 45.7475C34.2351 45.4368 34.0658 45.1827 34.0056 45.1827C33.9454 45.1827 33.9063 48.9352 33.9187 53.5215C33.9311 58.1079 33.9121 62.0548 33.8767 62.2923L33.8123 62.7242H25.7875H17.7626L17.7954 40.299ZM59.1936 62.093C61.2487 58.3891 62.5583 55.5043 63.7032 52.1594C64.7724 49.0355 65.3721 46.7703 66.0604 43.2558C66.3631 41.7104 66.6817 39.3797 66.669 38.804C66.665 38.6212 66.723 38.1129 66.7979 37.6744C67.009 36.4375 67.0215 31.3403 66.8211 28.1227C66.7215 26.5238 66.6026 25.1533 66.5567 25.0772C66.5109 25.0011 66.4305 24.5452 66.3782 24.0641C66.2367 22.7616 66.016 21.4856 65.6752 20C65.5075 19.2691 65.3316 18.4767 65.2843 18.2392L65.1983 17.8073H67.1535H69.1087L69.1254 18.2392C69.1778 19.599 69.1943 61.9347 69.1424 62.2923L69.0798 62.7242H63.9616H58.8434L59.1936 62.093ZM56.1137 61.8937C56.1553 61.5233 56.103 61.4258 55.7433 61.2095L55.3243 60.9572L55.7983 60.708C56.059 60.5709 56.2796 60.4004 56.2885 60.329C56.2979 60.2577 56.312 60.1445 56.321 60.0775C56.3586 59.7943 56.5105 59.8142 56.7116 60.1287C56.8734 60.3818 57.0382 60.465 57.3774 60.465C57.8915 60.465 57.904 60.4887 57.6223 60.9294C57.4839 61.1459 57.4447 61.3837 57.5027 61.6544C57.5863 62.0443 57.5765 62.0546 57.1998 61.9774C56.9444 61.9251 56.7082 61.9705 56.5126 62.1115C56.0992 62.4083 56.0583 62.3861 56.1137 61.8937ZM58.9726 55.6136C58.9364 55.5766 58.9473 55.2733 58.9967 54.9397C59.0837 54.352 59.0708 54.3202 58.5824 53.9179L58.0783 53.5027L58.3746 53.3341C58.5376 53.2413 58.7951 53.1634 58.9468 53.1608C59.2892 53.1554 59.4578 52.9485 59.5736 52.3935C59.7031 51.7724 59.8649 51.7462 60.1809 52.2953C60.4778 52.811 60.8528 53.0233 61.4671 53.0233C61.9475 53.0233 61.9458 53.1429 61.4591 53.6213C61.0189 54.0535 60.9889 54.2535 61.2634 54.9268C61.3697 55.1877 61.4132 55.4287 61.36 55.4624C61.3067 55.4962 61.0343 55.4096 60.7545 55.2702C60.1084 54.9481 60.0775 54.9501 59.5675 55.3489C59.1162 55.7017 59.0758 55.7194 58.9726 55.6136ZM61.1132 47.0099C61.1526 46.8455 61.2214 46.4119 61.266 46.0465C61.3433 45.4129 61.3286 45.3697 60.9499 45.1163C60.7314 44.9701 60.4384 44.6923 60.2987 44.4989L60.0447 44.1473L60.8586 43.9899L61.6726 43.8325L62.0976 42.9491L62.5226 42.0658L62.7306 42.4614C62.845 42.6791 63.0286 43.0365 63.1386 43.2558C63.3197 43.6164 63.4222 43.6654 64.214 43.7697C64.711 43.8351 65.09 43.9499 65.0912 44.0354C65.0921 44.1182 64.8488 44.4014 64.5502 44.6647L64.0072 45.1435L64.1544 46.0539C64.2353 46.5547 64.2843 46.9821 64.2634 47.0037C64.2423 47.0253 63.8809 46.8994 63.4604 46.7241L62.6957 46.4052L62.0864 46.7217C61.7513 46.8957 61.4404 47.0991 61.3954 47.1735C61.2423 47.4276 61.0411 47.311 61.1132 47.0099ZM61.038 36.7345C61.0029 36.6985 61.0519 36.2974 61.147 35.8431C61.2421 35.3889 61.3219 34.9186 61.3244 34.798C61.3271 34.6775 60.947 34.2008 60.4802 33.7388C59.55 32.8183 59.5614 32.7305 60.6159 32.6909C61.5235 32.6569 61.9902 32.4044 62.2239 31.8209C62.3394 31.5324 62.5414 31.093 62.6728 30.8445L62.9117 30.3926L63.4141 31.3096C63.6904 31.8139 63.9324 32.2696 63.9518 32.3221C63.9711 32.3747 64.472 32.4731 65.0648 32.5409C65.6576 32.6086 66.1688 32.6908 66.2007 32.7236C66.2326 32.7563 65.8996 33.1849 65.4605 33.676L64.6622 34.5689L64.8756 35.3559C65.0961 36.1686 65.1479 36.6784 65.01 36.6784C64.9664 36.6784 64.5031 36.4618 63.9804 36.197L63.0299 35.7155L62.0659 36.2578C61.5357 36.556 61.0732 36.7705 61.038 36.7345ZM58.7827 25.1631C58.8294 24.8816 58.9274 24.2327 59.0004 23.7211L59.1331 22.7909L58.1565 21.8437C57.2499 20.9643 57.0336 20.6964 57.2772 20.7541C57.4321 20.7907 58.8864 20.5858 59.385 20.457C59.7486 20.3631 59.9039 20.2125 60.1613 19.7047C60.3382 19.3556 60.6233 18.8109 60.7948 18.4944L61.1067 17.9189L61.556 18.7602C61.8031 19.2229 62.0827 19.745 62.1773 19.9204C62.4157 20.3625 62.6067 20.4609 63.2317 20.4632C63.5293 20.4642 64.0717 20.5359 64.4369 20.6223L65.101 20.7795L64.1424 21.7851L63.1839 22.7908L63.405 24.1197C63.5267 24.8506 63.6056 25.4732 63.5805 25.5033C63.5554 25.5334 62.9891 25.2728 62.3223 24.9245C61.1337 24.3035 61.1024 24.2953 60.7332 24.5074C60.5261 24.6264 59.9834 24.9378 59.5272 25.1993L58.6977 25.6748L58.7827 25.1631ZM64.058 14.0366C63.9937 13.8629 63.8772 13.4782 63.7992 13.1817C63.6374 12.5657 62.7142 10.2088 62.4279 9.68062C62.3227 9.48661 62.2366 9.25974 62.2366 9.17647C62.2366 8.75008 59.7578 3.93076 58.5761 2.05992C57.9622 1.08784 57.4392 0.16911 57.4392 0.0625274C57.4392 0.0281767 60.9401 0.000120074 65.2188 0.000120074H72.9984V7.1762V14.3523H68.5868H64.1751L64.058 14.0366Z" fill="white"/>
</svg>
