<svg width="32" height="33" viewBox="0 0 32 33" fill="none" xmlns="http://www.w3.org/2000/svg">
<ellipse cx="16" cy="22.4974" rx="8" ry="3.33333" stroke="currentColor" stroke-width="2" stroke-linejoin="round"/>
<circle cx="16" cy="11.1641" r="4" stroke="currentColor" stroke-width="2" stroke-linejoin="round"/>
<path fill-rule="evenodd" clip-rule="evenodd" d="M8.59135 18.1797C6.93992 18.2484 5.42291 18.5459 4.24529 19.017C3.57235 19.2861 2.96066 19.6317 2.50085 20.0665C2.03893 20.5033 1.66406 21.0993 1.66406 21.831C1.66406 22.5628 2.03893 23.1587 2.50085 23.5956C2.96066 24.0304 3.57235 24.376 4.24529 24.6451C4.91168 24.9117 5.68675 25.1227 6.53335 25.2681C5.87518 24.5581 5.46209 23.7648 5.3572 22.9237C5.2286 22.8804 5.10544 22.8351 4.98807 22.7882C4.45459 22.5748 4.08996 22.3457 3.87507 22.1425C3.6638 21.9427 3.66405 21.8372 3.66406 21.8312L3.66406 21.831L3.66406 21.8309C3.66405 21.8249 3.6638 21.7194 3.87507 21.5196C4.08996 21.3164 4.45459 21.0873 4.98807 20.8739C5.25869 20.7657 5.56007 20.6665 5.88789 20.5788C6.43948 19.659 7.37669 18.839 8.59135 18.1797Z" fill="currentColor"/>
<path fill-rule="evenodd" clip-rule="evenodd" d="M26.6404 22.9237C26.5355 23.7648 26.1224 24.5581 25.4643 25.2681C26.3109 25.1227 27.0859 24.9117 27.7523 24.6451C28.4253 24.376 29.0369 24.0304 29.4967 23.5956C29.9587 23.1587 30.3335 22.5628 30.3335 21.831C30.3335 21.0993 29.9587 20.5033 29.4967 20.0665C29.0369 19.6317 28.4253 19.2861 27.7523 19.017C26.5747 18.5459 25.0577 18.2484 23.4062 18.1797C24.6209 18.839 25.5581 19.659 26.1097 20.5788C26.4375 20.6665 26.7389 20.7657 27.0095 20.8739C27.543 21.0873 27.9076 21.3164 28.1225 21.5196C28.3338 21.7194 28.3336 21.8249 28.3335 21.8309V21.831V21.8312C28.3336 21.8372 28.3338 21.9427 28.1225 22.1425C27.9076 22.3457 27.543 22.5748 27.0095 22.7882C26.8922 22.8351 26.769 22.8804 26.6404 22.9237Z" fill="currentColor"/>
<path fill-rule="evenodd" clip-rule="evenodd" d="M22.0183 14.031C21.7251 14.6449 21.3408 15.2069 20.8828 15.6995C21.4106 15.9938 22.0186 16.1615 22.6658 16.1615C24.6908 16.1615 26.3324 14.5198 26.3324 12.4948C26.3324 10.4697 24.6908 8.82812 22.6658 8.82812C22.5267 8.82812 22.3895 8.83586 22.2545 8.85093C22.4839 9.47175 22.6235 10.1361 22.6576 10.8281C22.6603 10.8281 22.663 10.8281 22.6658 10.8281C23.5862 10.8281 24.3324 11.5743 24.3324 12.4948C24.3324 13.4153 23.5862 14.1615 22.6658 14.1615C22.4361 14.1615 22.2174 14.115 22.0183 14.031Z" fill="currentColor"/>
<path fill-rule="evenodd" clip-rule="evenodd" d="M9.74199 8.85093C9.60698 8.83586 9.46976 8.82812 9.33073 8.82812C7.30569 8.82812 5.66406 10.4697 5.66406 12.4948C5.66406 14.5198 7.30569 16.1615 9.33073 16.1615C9.9779 16.1615 10.5859 15.9938 11.1137 15.6995C10.6557 15.2069 10.2714 14.6449 9.9782 14.031C9.77914 14.115 9.56036 14.1615 9.33073 14.1615C8.41025 14.1615 7.66406 13.4153 7.66406 12.4948C7.66406 11.5743 8.41025 10.8281 9.33073 10.8281C9.33346 10.8281 9.33619 10.8281 9.33892 10.8281C9.37299 10.1361 9.5126 9.47175 9.74199 8.85093Z" fill="currentColor"/>
</svg>
