<?xml version="1.0" standalone="no"?>
<!DOCTYPE svg PUBLIC "-//W3C//DTD SVG 20010904//EN"
 "http://www.w3.org/TR/2001/REC-SVG-20010904/DTD/svg10.dtd">
<svg version="1.0" xmlns="http://www.w3.org/2000/svg"
 width="700.000000pt" height="700.000000pt" viewBox="0 0 700.000000 700.000000"
 preserveAspectRatio="xMidYMid meet">
<metadata>
Created by potrace 1.14, written by Peter Selinger 2001-2017
</metadata>
<g transform="translate(0.000000,700.000000) scale(0.100000,-0.100000)"
fill="#000000" stroke="none">
<path d="M1068 5992 c-170 -1 -308 -6 -309 -10 0 -4 -3 -1099 -5 -2433 l-5
-2426 840 0 839 0 5 31 c2 17 6 407 7 866 3 951 3 986 12 995 4 4 49 -78 101
-182 52 -103 112 -219 132 -258 21 -38 90 -174 155 -301 64 -127 133 -259 152
-295 41 -75 296 -571 381 -743 57 -114 60 -118 77 -100 10 11 70 123 135 249
65 127 150 293 190 370 139 266 198 381 277 535 44 85 101 196 128 245 26 50
91 176 145 280 54 105 101 194 106 199 11 12 10 83 14 -949 4 -971 3 -898 15
-890 14 9 134 257 205 425 105 246 233 637 270 820 2 8 8 33 14 55 5 22 13 54
15 70 3 17 8 41 11 55 3 14 8 39 10 55 3 17 14 80 25 140 19 111 21 123 39
270 23 185 21 166 36 345 6 66 6 608 1 700 -2 36 -7 92 -11 125 -3 33 -8 80
-10 105 -13 132 -22 208 -30 244 -2 12 -7 44 -10 71 -3 28 -8 57 -10 65 -2 8
-6 31 -9 50 -27 180 -120 550 -195 775 -66 198 -161 437 -176 442 -6 1 -15 -7
-21 -20 -6 -12 -38 -74 -71 -137 -67 -126 -182 -350 -335 -650 -55 -107 -134
-260 -176 -340 -41 -80 -109 -210 -150 -290 -41 -80 -120 -235 -177 -345 -56
-110 -135 -264 -174 -342 -39 -78 -76 -145 -82 -149 -6 -3 -17 0 -24 7 -6 8
-87 160 -177 339 -187 367 -286 559 -363 705 -29 55 -108 208 -175 340 -253
497 -309 604 -384 746 l-77 145 -437 0 c-240 -1 -575 -2 -744 -4z"/>
<path d="M5710 5994 c0 -8 52 -249 55 -253 1 -3 6 -24 9 -46 3 -22 8 -51 11
-65 3 -14 8 -36 10 -50 7 -30 31 -204 40 -280 4 -30 10 -73 15 -95 5 -22 11
-80 15 -130 3 -49 8 -114 11 -144 22 -287 22 -981 0 -1098 -3 -11 -7 -56 -11
-99 -13 -160 -13 -161 -45 -374 -17 -110 -50 -287 -75 -395 -3 -11 -12 -51
-21 -90 -8 -38 -17 -77 -19 -85 -51 -233 -227 -763 -334 -1005 -10 -22 -29
-65 -42 -95 -13 -30 -76 -158 -139 -285 -63 -126 -120 -242 -127 -256 l-12
-27 532 2 532 1 5 40 c9 64 4 4814 -4 4822 -6 7 -406 13 -406 7z"/>
<path d="M5270 5959 c-7 -12 -34 -65 -62 -118 -27 -53 -58 -103 -68 -112 -19
-16 -157 -46 -232 -51 -26 -1 -35 -6 -30 -14 4 -7 50 -57 102 -111 52 -54 94
-100 93 -104 -1 -3 -4 -30 -7 -60 -3 -30 -8 -63 -10 -74 -2 -11 -6 -41 -10
-66 -4 -25 -9 -58 -12 -72 -6 -33 3 -34 50 -2 20 14 39 25 41 25 3 0 34 18 70
40 36 22 75 40 86 40 11 0 66 -24 122 -52 151 -79 140 -77 133 -16 -4 29 -11
78 -16 108 -25 140 -27 129 49 211 37 41 82 90 99 110 l31 35 -57 12 c-32 7
-86 14 -122 18 -36 3 -75 10 -87 16 -14 7 -46 57 -84 132 -34 67 -63 123 -64
124 -2 2 -9 -6 -15 -19z"/>
<path d="M5452 4598 c-6 -13 -26 -57 -45 -98 -42 -90 -68 -108 -164 -116 -37
-3 -76 -10 -86 -16 -21 -11 -15 -22 54 -96 25 -26 56 -62 70 -80 l26 -33 -18
-102 c-10 -56 -15 -105 -13 -109 4 -7 54 18 169 82 l40 23 97 -52 c54 -28 102
-51 108 -51 12 0 3 95 -12 123 -5 9 -7 17 -4 17 2 0 -2 19 -9 43 l-12 42 78
94 c44 52 79 98 79 102 0 11 -15 14 -175 36 -22 2 -45 10 -51 16 -6 7 -33 54
-60 105 -27 50 -51 92 -54 92 -4 0 -12 -10 -18 -22z"/>
<path d="M5385 3267 c-24 -54 -46 -97 -48 -97 -4 0 -41 -7 -137 -26 -13 -3
-26 -7 -29 -9 -2 -3 27 -34 64 -71 l67 -66 -6 -76 c-4 -41 -9 -79 -12 -84 -3
-4 -2 -18 1 -29 7 -21 7 -21 33 4 15 13 50 37 79 52 l52 27 75 -31 c41 -17 78
-31 81 -31 6 0 5 21 -11 148 l-6 52 57 57 c51 51 55 58 40 69 -9 7 -47 18 -84
24 -36 6 -72 14 -79 19 -6 4 -30 42 -52 86 l-40 78 -45 -96z"/>
<path d="M5116 2230 c-11 -35 -25 -61 -35 -64 -9 -2 -29 -7 -46 -11 -16 -3
-38 -12 -48 -19 -17 -13 -15 -17 30 -59 l47 -45 -2 -71 c-2 -44 1 -71 8 -71 5
0 30 16 55 35 48 36 50 36 122 4 69 -31 75 -25 48 51 -21 58 -19 81 8 110 33
36 61 80 51 81 -99 7 -139 27 -170 85 -27 51 -46 43 -68 -26z"/>
<path d="M4787 1423 c-2 -5 -7 -19 -10 -33 -4 -16 -23 -34 -52 -51 l-46 -25
40 -29 c37 -25 41 -32 41 -71 0 -48 5 -52 39 -28 13 10 41 16 66 16 l43 -1 -3
42 c-2 27 4 55 16 79 21 41 19 43 -31 47 -24 1 -44 11 -62 32 -29 31 -34 33
-41 22z"/>
</g>
</svg>
