<svg width="100" height="150" viewBox="0 0 100 150" fill="none" xmlns="http://www.w3.org/2000/svg">
<rect x="1.9226" y="1.92211" width="96.1545" height="146.155" rx="8.33339" stroke="currentColor" stroke-width="3.84618"/>
<circle cx="22.1154" cy="25.3198" r="8.01287" fill="currentColor"/>
<rect x="37.1792" y="18.5889" width="49.3593" height="4.48721" rx="2.2436" fill="currentColor"/>
<rect x="36.5386" y="26.9222" width="7.05133" height="4.48721" rx="2.2436" fill="currentColor"/>
<rect x="50.6411" y="26.9222" width="7.05133" height="4.48721" rx="2.2436" fill="currentColor"/>
<rect x="64.7437" y="26.9222" width="7.05133" height="4.48721" rx="2.2436" fill="currentColor"/>
<rect x="78.8462" y="26.9222" width="7.05133" height="4.48721" rx="2.2436" fill="currentColor"/>
<circle cx="22.1154" cy="53.525" r="8.01287" fill="currentColor"/>
<rect x="36.5386" y="46.7942" width="49.3593" height="4.48721" rx="2.2436" fill="currentColor"/>
<rect x="36.5386" y="55.7686" width="7.05133" height="4.48721" rx="2.2436" fill="currentColor"/>
<rect x="50.6411" y="55.7686" width="7.05133" height="4.48721" rx="2.2436" fill="currentColor"/>
<rect x="64.7437" y="55.7686" width="7.05133" height="4.48721" rx="2.2436" fill="currentColor"/>
<rect x="78.8462" y="55.7686" width="7.05133" height="4.48721" rx="2.2436" fill="currentColor"/>
<circle cx="22.1154" cy="82.3713" r="8.01287" fill="currentColor"/>
<rect x="37.1792" y="75.6405" width="49.3593" height="4.48721" rx="2.2436" fill="currentColor"/>
<rect x="37.1792" y="83.9739" width="7.05133" height="4.48721" rx="2.2436" fill="currentColor"/>
<rect x="50.6411" y="83.9739" width="7.05133" height="4.48721" rx="2.2436" fill="currentColor"/>
<rect x="64.7437" y="83.9739" width="7.05133" height="4.48721" rx="2.2436" fill="currentColor"/>
<rect x="78.8462" y="83.9739" width="7.05133" height="4.48721" rx="2.2436" fill="currentColor"/>
<path fill-rule="evenodd" clip-rule="evenodd" d="M17.9492 104.489C15.825 104.489 14.103 106.211 14.103 108.336V129.49C14.103 131.614 15.825 133.336 17.9492 133.336H82.0522C84.1764 133.336 85.8984 131.614 85.8984 129.49V108.336C85.8984 106.211 84.1764 104.489 82.0522 104.489H17.9492ZM51.9263 115.387C50.6872 115.387 49.6827 116.391 49.6827 117.63C49.6827 118.87 50.6872 119.874 51.9263 119.874H74.1241C75.3632 119.874 76.3677 118.87 76.3677 117.63C76.3677 116.391 75.3632 115.387 74.1241 115.387H51.9263ZM32.5301 117.63C32.5301 116.391 33.5346 115.387 34.7737 115.387H36.0047C37.2439 115.387 38.2483 116.391 38.2483 117.63C38.2483 118.87 37.2438 119.874 36.0047 119.874H34.7737C33.5346 119.874 32.5301 118.87 32.5301 117.63ZM25.2434 115.387C24.0043 115.387 22.9998 116.391 22.9998 117.63C22.9998 118.87 24.0043 119.874 25.2434 119.874H26.4744C27.7135 119.874 28.718 118.87 28.718 117.63C28.718 116.391 27.7135 115.387 26.4744 115.387H25.2434Z" fill="currentColor"/>
</svg>
