<svg width="60" height="60" viewBox="0 0 60 60" fill="none" xmlns="http://www.w3.org/2000/svg">
<path d="M58.9346 20.2547C58.9346 30.8827 50.5819 39.4433 40.3453 39.4433C30.1087 39.4433 21.756 30.8827 21.756 20.2547C21.756 9.62668 30.1087 1.06604 40.3453 1.06604C50.5819 1.06604 58.9346 9.62668 58.9346 20.2547Z" stroke="currentColor" stroke-width="2.13207"/>
<path d="M25.6007 32.1119L27.0637 33.6195L21.2118 39.6499L19.7488 38.1423L25.6007 32.1119Z" fill="currentColor"/>
<path d="M16.457 37.0116C17.063 36.3871 18.0455 36.3871 18.6515 37.0116L22.309 40.7806C22.915 41.4051 22.915 42.4175 22.309 43.042L8.77632 56.9873C7.16034 58.6526 4.54032 58.6526 2.92434 56.9873C1.30836 55.3221 1.30836 52.6221 2.92434 50.9569L16.457 37.0116Z" fill="currentColor"/>
<path d="M40.2374 28.2486C39.7115 28.2486 39.2852 27.8223 39.2852 27.2964V27.1738C39.2852 26.6479 39.7115 26.2216 40.2374 26.2216C40.7633 26.2216 41.1896 26.6479 41.1896 27.1738V27.2964C41.1896 27.8223 40.7633 28.2486 40.2374 28.2486ZM40.2374 24.6451C39.7699 24.6451 39.391 24.2661 39.391 23.7987V23.2938C39.391 22.4079 39.5603 21.7022 39.8988 21.1767C40.2515 20.6362 40.8581 20.1407 41.7186 19.6903C42.7766 19.1197 43.3056 18.1813 43.3056 16.875C43.3056 16.0342 43.0235 15.336 42.4592 14.7805C41.8949 14.225 41.1896 13.9472 40.3432 13.9472C39.4686 13.9472 38.7562 14.21 38.206 14.7355C37.8722 15.0544 37.6396 15.4148 37.5083 15.8166C37.3632 16.261 37.0018 16.6498 36.5344 16.6498C36.0669 16.6498 35.6782 16.2678 35.7588 15.8073C35.9132 14.9258 36.3198 14.1631 36.9788 13.5193C37.8534 12.6785 38.9749 12.2581 40.3432 12.2581C41.7116 12.2581 42.826 12.701 43.6865 13.5868C44.5611 14.4577 44.9984 15.5538 44.9984 16.875C44.9984 18.7969 44.1873 20.1858 42.565 21.0416C41.9725 21.3419 41.5775 21.6647 41.38 22.01C41.1826 22.3554 41.0838 22.7833 41.0838 23.2938V23.7987C41.0838 24.2661 40.7049 24.6451 40.2374 24.6451Z" fill="currentColor"/>
</svg>
