<svg width="54" height="73" viewBox="0 0 54 73" fill="none" xmlns="http://www.w3.org/2000/svg">
<path d="M1.55391 1.54213L0.00390625 3.09212V36.0421C0.00390625 59.3921 0.153906 69.3921 0.553906 70.1421C2.05391 73.0421 1.15391 72.9921 26.5039 72.9921C51.8539 72.9921 50.9539 73.0421 52.4539 70.1421C53.2539 68.5921 53.2539 4.39213 52.4539 2.84212C50.9539 -0.0578766 51.8539 -0.00787354 26.4039 -0.00787354H3.10391L1.55391 1.54213ZM49.7539 3.24213L51.0039 4.44212V36.4921V68.5421L49.7539 69.7421L48.5539 70.9921H26.5039H4.45391L3.25391 69.7421L2.00391 68.5421V36.4921V4.44212L3.25391 3.24213L4.45391 1.99213H26.5039H48.5539L49.7539 3.24213Z" fill="currentColor"/>
<path d="M7.40781 6.54375C6.60781 6.99375 6.50781 7.94375 6.50781 14.3938C6.50781 19.4938 6.70781 21.9938 7.10781 22.3938C7.95781 23.2437 45.0578 23.2437 45.9078 22.3938C46.3078 21.9938 46.5078 19.4938 46.5078 14.3938C46.5078 7.64375 46.4078 6.99375 45.5578 6.49375C44.2578 5.79375 8.60781 5.84375 7.40781 6.54375Z" fill="currentColor"/>
<path d="M5.55422 27.6922C5.15422 28.1422 5.00422 30.9922 5.10422 36.7922L5.25422 45.2422L14.9042 45.3922L24.5042 45.4922V36.5422C24.5042 28.8422 24.4042 27.5422 23.7042 27.2922C23.2542 27.1422 19.1542 26.9922 14.5042 26.9922C8.00422 26.9922 6.00422 27.1422 5.55422 27.6922ZM22.5042 36.4922V43.4922H15.0042H7.50422V36.4922V29.4922H15.0042H22.5042V36.4922Z" fill="currentColor"/>
<path d="M13.8514 32.8422C13.6514 32.9922 13.5014 33.6922 13.5014 34.2922C13.5014 35.1422 13.1514 35.4422 12.1514 35.5922C10.3514 35.7922 10.3014 37.1922 12.0514 37.3922C13.1014 37.4922 13.4514 37.8922 13.7014 39.0422C13.9014 40.0922 14.2514 40.4922 15.0014 40.4922C15.8014 40.4922 16.0014 40.1422 16.0014 38.9922C16.0014 37.6422 16.1514 37.4922 17.5014 37.4922C18.6514 37.4922 19.0014 37.2922 19.0014 36.4922C19.0014 35.6922 18.6514 35.4922 17.5014 35.4922C16.1514 35.4922 16.0014 35.3422 16.0014 33.9922C16.0014 32.8922 15.7514 32.4922 15.1014 32.4922C14.6014 32.4922 14.0014 32.6422 13.8514 32.8422Z" fill="currentColor"/>
<path d="M29.1539 27.3422C28.6539 27.4922 28.5039 29.8422 28.5039 36.5422V45.4922L38.1539 45.3922L47.7539 45.2422L47.9039 36.7922C48.0039 30.9922 47.8539 28.1422 47.4539 27.6922C47.0039 27.1422 45.0539 26.9922 38.3039 27.0422C33.6039 27.0422 29.4539 27.1922 29.1539 27.3422ZM45.5039 36.4922V43.4922H38.0039H30.5039V36.4922V29.4922H38.0039H45.5039V36.4922Z" fill="currentColor"/>
<path d="M37.1032 33.3377C37.3532 34.6377 39.0032 34.7877 39.0032 33.5377C39.0032 32.7877 38.7032 32.4877 37.9532 32.4877C37.2532 32.4877 37.0032 32.7377 37.1032 33.3377Z" fill="currentColor"/>
<path d="M34 36.4898C34 37.4898 34.25 37.5398 38.15 37.3898C41.4 37.2898 42.25 37.0898 42.25 36.4898C42.25 35.8898 41.4 35.6898 38.15 35.5898C34.25 35.4398 34 35.4898 34 36.4898Z" fill="currentColor"/>
<path d="M37.3543 38.8422C36.6543 39.4922 37.0543 40.4922 38.0043 40.4922C38.6543 40.4922 39.0043 40.1422 39.0043 39.4922C39.0043 38.5422 38.0043 38.1422 37.3543 38.8422Z" fill="currentColor"/>
<path d="M5.25469 50.1422C5.10469 50.4922 5.05469 54.5922 5.10469 59.2422L5.25469 67.7422H14.7547H24.2547V58.7422V49.7422L14.8547 49.5922C7.50469 49.4922 5.40469 49.5922 5.25469 50.1422ZM22.5047 58.7422V65.4922H15.0047H7.50469V58.7422V51.9922H15.0047H22.5047V58.7422Z" fill="currentColor"/>
<path d="M11.7539 56.0422C11.5539 56.2922 11.7539 56.9422 12.2039 57.4422C13.2039 58.5422 13.2039 58.8422 12.2539 59.7922C11.8539 60.2422 11.5039 60.7922 11.5039 61.0422C11.5039 61.9922 13.0539 62.0922 14.0039 61.2422C14.9539 60.3922 15.0539 60.3922 15.9039 61.1422C16.4039 61.6422 17.1039 61.9922 17.4039 61.9922C18.2539 61.9922 18.1539 60.2422 17.2539 59.4922C16.5539 58.8922 16.5539 58.7422 17.2539 57.9922C17.6539 57.5422 18.0039 56.7922 18.0039 56.3422C18.0039 55.1922 16.2039 55.2422 15.5539 56.3422C15.1039 57.1922 15.0539 57.1922 14.1539 56.3422C13.0539 55.3922 12.2039 55.2422 11.7539 56.0422Z" fill="currentColor"/>
<path d="M28.7508 50.1422C28.6008 50.4922 28.5508 54.5922 28.6008 59.2422L28.7508 67.7422H38.2508H47.7508V58.7422V49.7422L38.3508 49.5922C31.0008 49.4922 28.9008 49.5922 28.7508 50.1422ZM45.5008 58.7422V65.4922H38.0008H30.5008V58.7422V51.9922H38.0008H45.5008V58.7422Z" fill="currentColor"/>
<path d="M34.2046 56.2422C33.6546 57.5922 34.5546 57.9922 37.9546 57.9922C41.4046 57.9922 43.0046 57.2422 42.2546 55.9922C41.7546 55.1422 34.5046 55.3422 34.2046 56.2422Z" fill="currentColor"/>
<path d="M34.203 60.2422C33.653 61.5922 34.553 61.9922 38.253 61.9922C41.953 61.9922 43.153 61.3422 41.853 60.0422C41.003 59.1922 34.553 59.3422 34.203 60.2422Z" fill="currentColor"/>
</svg>
