<svg width="63" height="73" viewBox="0 0 63 73" fill="none" xmlns="http://www.w3.org/2000/svg">
<path d="M37.9574 1.05781C36.3074 2.50781 35.4074 2.80781 30.3074 3.45781C24.9574 4.20781 22.0574 5.45781 19.7574 8.15781C17.7074 10.5578 17.2574 12.4078 17.7074 16.9578C17.9074 19.0578 17.8574 20.9078 17.5074 21.8078C16.7074 23.8578 17.3574 27.4078 18.7574 28.8078C19.4074 29.4578 20.1574 30.7578 20.5074 31.7578C20.8074 32.7078 21.8574 34.6578 22.8074 36.0578C24.8074 39.0578 24.8574 39.3078 23.4074 40.0578C22.7574 40.3578 21.4574 41.3578 20.5074 42.2578C19.2074 43.4578 17.0574 44.4578 12.3074 46.0078C0.407388 50.0578 -0.0926123 50.7578 0.107388 64.0078L0.257388 72.7578H31.5074H62.7574L62.9074 63.8078C63.0074 55.5578 62.9574 54.7078 61.9574 52.7078C60.6074 49.8578 58.4074 48.5578 50.5074 45.9578C45.8574 44.4078 43.8074 43.4578 42.5074 42.2578C41.5574 41.3578 40.2574 40.3578 39.6574 40.0578C38.1574 39.3078 38.2074 39.0578 40.2074 36.0578C41.1574 34.6578 42.2074 32.7078 42.5074 31.7578C42.8574 30.7578 43.6074 29.4578 44.2574 28.8078C45.6574 27.4078 46.3074 23.8578 45.5574 21.8578C45.2074 21.0078 45.1074 18.8578 45.3074 16.3578C45.5574 13.2078 45.4574 11.8078 44.8574 10.4078C44.4574 9.40781 44.2074 8.10781 44.3574 7.55781C45.1074 4.70781 42.5574 0.0078125 40.3074 0.0078125C39.6574 0.0078125 38.6074 0.457809 37.9574 1.05781ZM28.4574 14.5578C31.0074 14.9578 36.6574 14.5078 38.7574 13.7078C40.1574 13.1578 41.0074 14.8078 41.0074 18.0578C41.0074 20.9578 41.4574 21.7578 43.2574 22.1078C43.8074 22.2078 44.3074 22.6578 44.4074 23.1078C44.7074 24.6078 43.5574 27.9078 42.6074 28.1078C42.1074 28.2578 41.5074 29.2078 41.1574 30.5578C40.3574 33.5578 37.8574 37.3078 35.9074 38.5078C33.6574 39.8578 29.3574 39.8578 27.1074 38.5078C25.1574 37.3078 22.6574 33.5578 21.8574 30.5578C21.5074 29.2078 20.9074 28.2578 20.4074 28.1078C19.4574 27.9078 18.3074 24.6078 18.6074 23.1078C18.7074 22.6578 19.2074 22.2078 19.7574 22.1078C21.5574 21.7578 22.0074 20.9578 22.0074 18.1578C22.0074 14.5078 22.6574 13.3078 24.4074 13.7578C25.1574 13.9578 26.9574 14.3078 28.4574 14.5578ZM31.7574 40.7578C33.7074 40.7578 35.6574 40.5578 36.1574 40.3078C36.8574 39.9578 37.0074 40.1578 37.0074 41.5078C37.0074 43.2078 32.0074 61.0078 31.5074 61.0078C31.0574 61.0078 26.0074 42.9078 26.0074 41.3578C26.0074 40.1078 26.1574 40.0078 27.1574 40.3578C27.7574 40.5578 29.8574 40.7578 31.7574 40.7578ZM18.1074 48.3578C18.2574 50.7578 18.2574 50.7578 19.9074 50.6078L21.5074 50.4578L20.6574 52.2578L19.8074 54.0578L25.1574 59.4078L30.5074 64.7578V68.1578V71.5078H16.0074H1.50739V63.3578C1.50739 51.8578 1.80739 51.4078 11.2574 48.0078C14.3074 46.9578 17.0074 46.0578 17.3574 46.0578C17.7074 46.0078 18.0074 46.9578 18.1074 48.3578ZM51.1074 47.8078C61.0074 51.1078 61.5074 51.8078 61.5074 63.3578V71.5078H47.0074H32.5074V68.1578V64.7578L37.8574 59.4078L43.2074 54.0578L42.3574 52.2578L41.5074 50.4578L43.1074 50.6078C44.7574 50.7578 44.7574 50.7578 44.9074 48.3578C45.0074 47.0578 45.2074 46.0078 45.4074 46.0078C45.6074 46.0078 48.1574 46.8078 51.1074 47.8078Z" fill="currentColor"/>
</svg>
