<svg width="57" height="73" viewBox="0 0 57 73" fill="none" xmlns="http://www.w3.org/2000/svg">
<path d="M24.9977 1.74062C23.3977 2.84061 23.0477 2.94061 21.3977 2.39061C18.8977 1.64061 16.7977 2.54061 15.1977 5.09061C14.2977 6.54061 13.6477 6.99062 12.5977 6.99062C11.8477 6.99062 10.4977 7.44061 9.64766 7.99062C8.09766 8.89061 7.69766 9.69061 7.39766 12.4906C7.29766 13.2406 6.54766 14.1906 5.29766 15.0406C2.89766 16.6406 2.34766 17.9906 2.74766 21.0906C3.04766 23.0406 2.89766 23.6906 1.99766 24.8906C0.547656 26.8406 0.547656 29.6906 1.99766 31.2406C2.99766 32.2906 3.04766 32.7406 2.74766 35.4406C2.39766 38.4406 2.39766 38.4906 4.14766 40.1406C5.09766 40.9906 6.24766 42.0406 6.69766 42.3906C7.14766 42.7406 7.49766 43.6906 7.49766 44.4906C7.49766 46.4406 9.69766 48.9906 11.3977 48.9906C14.4477 49.0406 14.3477 49.4906 9.54766 57.4406C7.04766 61.6406 4.99766 65.3406 4.99766 65.7406C4.99766 66.9406 6.14766 66.8406 10.6477 65.1406C13.0977 64.1906 15.1977 63.5406 15.2977 63.6406C15.3977 63.7406 16.3977 65.7906 17.4977 68.1906C20.3977 74.4406 20.7477 74.1906 23.4477 63.9906L25.5977 55.7406H28.4977H31.3977L33.5977 63.9906C36.2977 74.2406 36.5977 74.4906 39.5477 68.0406C40.6977 65.5406 41.7977 63.4906 41.9477 63.4906C42.0977 63.5406 44.1477 64.2906 46.4977 65.1906C50.7477 66.8406 51.9977 66.9906 51.9977 65.7406C51.9977 65.3406 49.9477 61.6406 47.4477 57.4406C42.6477 49.4906 42.5477 49.0406 45.5977 48.9906C47.2977 48.9906 49.4977 46.4406 49.4977 44.4906C49.4977 43.6906 49.8477 42.7406 50.2977 42.3906C50.7477 42.0406 51.8977 40.9906 52.8477 40.1406C54.5977 38.4906 54.5977 38.4406 54.2477 35.4406C53.9477 32.7406 53.9977 32.2906 54.9977 31.2406C56.4477 29.6906 56.4477 26.8406 54.9977 24.8906C54.0977 23.6406 53.9977 23.0406 54.2477 20.7406C54.5477 18.4406 54.4477 17.8406 53.4977 16.5406C52.8977 15.6906 52.1477 14.9906 51.7977 14.9906C50.7477 14.9906 49.4977 13.2406 49.4977 11.7906C49.4977 11.0406 49.2477 9.99061 48.9977 9.44061C48.3477 8.24062 45.9477 6.99062 44.2977 6.99062C43.3477 6.99062 42.6977 6.49062 41.7977 5.09061C40.1977 2.54061 38.0977 1.64061 35.5977 2.39061C33.9477 2.89061 33.5977 2.84061 31.9977 1.74062C29.6477 0.14061 27.2477 0.14061 24.9977 1.74062ZM30.8477 3.79061C32.5477 4.94061 33.0477 5.04061 35.5477 4.74062C38.2477 4.44061 38.4477 4.49062 39.2977 5.74062C41.0977 8.29061 41.9977 8.99061 43.9977 9.29062C46.2977 9.69061 47.4977 10.9906 47.4977 13.1406C47.4977 14.0906 47.9477 14.9406 48.7977 15.6406C52.3977 18.6406 52.4477 18.6906 51.8477 20.8906C51.2977 22.9906 51.6977 24.4406 53.5977 27.0906C54.2477 27.9406 54.0477 28.5406 52.0977 31.5906C51.3977 32.7406 51.3477 33.2406 51.8477 35.0906C52.3477 36.8406 52.2977 37.4406 51.6977 38.3406C51.2977 38.9906 50.6977 39.4906 50.2977 39.4906C49.1977 39.4906 47.9477 41.2906 47.4477 43.5406C46.7977 46.3906 46.1977 46.9906 44.1477 46.9906C42.4477 46.9906 41.8977 47.3906 38.7477 51.0906C38.0977 51.8406 37.5977 51.9906 36.3477 51.6906C33.8977 51.0906 32.4977 51.2906 30.9477 52.4406C29.1477 53.7906 27.8477 53.7906 26.0477 52.4406C24.4977 51.2906 23.1977 51.1406 20.3977 51.6906C18.6477 52.0906 18.4977 51.9906 17.2977 50.0406C15.8477 47.7906 14.6977 46.9906 12.7977 46.9906C11.0977 46.9906 9.49766 45.3406 9.49766 43.5906C9.49766 41.8906 8.29766 40.0906 6.69766 39.4906C5.09766 38.8406 4.54766 37.2906 5.19766 34.9406C5.69766 32.9906 5.54766 32.4906 3.59766 29.3906C2.89766 28.2406 2.84766 27.8406 3.39766 27.1406C5.29766 24.4406 5.69766 22.9906 5.14766 20.8906C4.54766 18.6906 4.89766 18.0906 7.94766 15.9906C8.59766 15.5406 9.24766 14.3406 9.54766 12.9906C10.1477 10.3406 10.7977 9.49061 12.0977 9.49061C13.8477 9.49061 16.1977 8.04061 17.3977 6.19061C18.5477 4.44061 18.5477 4.44061 21.3977 4.74062C23.8977 5.04061 24.4477 4.94061 25.9977 3.84061C28.2477 2.24062 28.5477 2.24062 30.8477 3.79061Z" fill="currentColor"/>
<path d="M24.4959 9.18504C14.3459 11.385 7.59591 21.335 9.44591 31.385C11.6459 43.185 22.9959 50.085 34.4459 46.535C41.3459 44.385 46.1959 38.785 47.5459 31.385C49.4459 21.135 42.2959 10.935 31.7959 9.03504C28.2959 8.38504 28.0459 8.38504 24.4959 9.18504ZM26.3959 19.785C27.8459 21.435 27.8959 24.835 26.4459 26.685C25.6459 27.685 24.9959 27.985 23.4459 27.985C20.6959 27.985 19.6459 27.285 18.9459 25.035C17.3459 19.685 22.8459 15.785 26.3959 19.785ZM34.9959 19.285C34.9959 20.035 25.6459 35.385 24.0959 37.085C23.1459 38.185 22.5459 38.235 22.1959 37.235C21.7459 36.085 32.8959 18.485 34.0959 18.485C34.5959 18.485 34.9959 18.835 34.9959 19.285ZM36.0459 28.485C37.5459 29.335 38.6459 31.885 38.2959 33.885C37.8959 36.435 36.2459 37.985 33.8959 37.985C31.0459 37.985 29.4959 36.285 29.4959 33.085C29.4959 31.785 29.7959 30.335 30.1459 29.885C31.5459 28.135 34.1459 27.485 36.0459 28.485Z" fill="currentColor"/>
<path d="M21.7963 21.2922C20.2963 22.7422 21.2963 25.9922 23.1963 25.9922C24.2463 25.9922 24.9963 24.8422 24.9963 23.2422C24.9963 20.7422 23.3463 19.6922 21.7963 21.2922Z" fill="currentColor"/>
<path d="M32.1984 31.6843C31.6484 33.9343 32.1484 35.2343 33.5984 35.3843C35.3984 35.5843 36.4484 33.6343 35.5984 31.7343C34.7984 30.0343 32.6484 29.9843 32.1984 31.6843Z" fill="currentColor"/>
</svg>
