<svg width="157" height="236" viewBox="0 0 157 236" fill="none" xmlns="http://www.w3.org/2000/svg">
<path fill-rule="evenodd" clip-rule="evenodd" d="M24 10C24 4.47715 28.4772 0 34 0H123C128.523 0 133 4.47715 133 10V89C133 90.4222 132.703 91.7751 132.168 93H147C152.523 93 157 97.4771 157 103V226C157 231.523 152.523 236 147 236H10C4.47715 236 0 231.523 0 226V103C0 97.4772 4.47715 93 10 93H24.8321C24.2969 91.7751 24 90.4222 24 89V10ZM34 7H123C124.657 7 126 8.34315 126 10V89C126 90.6569 124.657 92 123 92H34C32.3431 92 31 90.6569 31 89V10C31 8.34315 32.3431 7 34 7ZM10 100H147C148.657 100 150 101.343 150 103V226C150 227.657 148.657 229 147 229H10C8.34315 229 7 227.657 7 226V103C7 101.343 8.34315 100 10 100Z" fill="currentColor"/>
<path d="M86 201C86 197.134 89.134 194 93 194H132C135.866 194 139 197.134 139 201V211C139 214.866 135.866 218 132 218H93C89.134 218 86 214.866 86 211V201Z" fill="currentColor"/>
<path d="M61 100H95V133.258C95 137.125 90.7981 139.528 87.4649 137.568L78 132L68.5351 137.568C65.2019 139.528 61 137.125 61 133.258V100Z" fill="currentColor"/>
<path d="M65 5H91V30.8558C91 34.8087 86.6295 37.1984 83.3017 35.0652L78 31.6667L72.6983 35.0652C69.3705 37.1984 65 34.8087 65 30.8558V5Z" fill="currentColor"/>
</svg>
