<svg width="65" height="73" viewBox="0 0 65 73" fill="none" xmlns="http://www.w3.org/2000/svg">
<path d="M53.0063 1.20094C50.4063 1.90094 49.9563 2.95094 51.7563 4.05094L53.0563 4.80094L49.8063 8.55094C38.9063 21.3509 23.9563 30.5509 7.00625 34.9509L1.25625 36.4009L0.90625 42.0509C0.65625 45.6009 0.70625 47.9009 1.05625 48.3009C2.15625 49.6509 20.1063 41.2509 29.5563 34.9009C39.7563 28.0509 49.3563 17.8009 54.6063 8.05094C55.4563 6.50093 55.5063 6.45094 56.7563 7.30094C58.7063 8.60094 59.1563 7.75093 58.4063 3.95094C57.6563 0.300938 57.1563 0.0509377 53.0063 1.20094Z" fill="currentColor"/>
<path d="M54.7586 19.1C54.6086 19.45 54.5586 31.55 54.6086 46L54.7586 72.25H59.5086H64.2586V45.5V18.75L59.6086 18.6C56.2086 18.5 54.9086 18.65 54.7586 19.1ZM62.0086 45.5V70.5H59.5086H57.0086V45.5V20.5H59.5086H62.0086V45.5Z" fill="currentColor"/>
<path d="M41.5581 35.2C41.1581 35.65 41.0081 41.05 41.1081 54.05L41.2581 72.25H46.0081H50.7581L50.9081 54.05C51.0081 41.05 50.8581 35.65 50.4581 35.2C49.6581 34.25 42.3581 34.25 41.5581 35.2Z" fill="currentColor"/>
<path d="M27.7586 47.1C27.6086 47.45 27.5586 53.3 27.6086 60L27.7586 72.25H32.5086H37.2586V59.5V46.75L32.6086 46.6C29.1586 46.5 27.9086 46.65 27.7586 47.1ZM35.0086 59.5V70.5H32.5086H30.0086V59.5V48.5H32.5086H35.0086V59.5Z" fill="currentColor"/>
<path d="M14.5542 55.2C14.1542 55.65 14.0042 58.45 14.1042 64.05L14.2542 72.25H19.0042H23.7542L23.9042 64.05C24.0042 58.45 23.8542 55.65 23.4542 55.2C23.0542 54.7 21.7042 54.5 19.0042 54.5C16.3042 54.5 14.9542 54.7 14.5542 55.2Z" fill="currentColor"/>
<path d="M0.705553 61.15C0.605553 61.5 0.555553 64.15 0.605553 67.05L0.755553 72.25H5.50555H10.2556L10.4056 67.05C10.5056 63.7 10.3556 61.65 9.95555 61.2C9.15555 60.25 1.10555 60.2 0.705553 61.15ZM8.00555 66.75V70.5H5.50555H3.00555V66.75V63H5.50555H8.00555V66.75Z" fill="currentColor"/>
</svg>
