<svg width="75" height="63" viewBox="0 0 75 63" fill="none" xmlns="http://www.w3.org/2000/svg">
<path d="M21.5499 1.10788C21.2999 1.75788 20.9499 2.95789 20.7999 3.85788C20.4999 5.15789 20.0499 5.55788 18.5999 6.05788C17.5999 6.35788 16.2999 6.90789 15.6999 7.25788C14.7999 7.85788 14.3499 7.70789 12.2499 6.40789L9.84992 4.90789L7.39992 7.40789L4.89992 9.85788L6.39992 12.2579L7.84992 14.6079L6.59992 17.5079C5.34992 20.2579 5.19992 20.4579 2.79992 21.1079L0.249924 21.7579L0.099924 25.1579C-7.59587e-05 27.5579 0.149924 28.6079 0.599924 28.7579C0.949924 28.8579 2.14992 29.2079 3.24992 29.4579C5.04992 29.9079 5.39992 30.2579 6.54992 32.9579L7.89992 35.9079L6.44992 38.0579C4.89992 40.4079 4.89992 40.2579 7.74992 43.3579C9.49992 45.3579 10.1999 45.4079 12.6499 43.7579C14.4499 42.5079 14.5499 42.5079 16.0999 43.3079C16.9999 43.7579 18.2999 44.3079 18.9999 44.5079C19.9499 44.7579 20.3999 45.4079 20.9999 47.5579L21.7999 50.2579L25.1499 50.4079C27.5499 50.5079 28.5499 50.3579 28.6999 49.9079C28.8499 49.5579 29.1999 48.2579 29.5999 47.1079C30.1999 45.1079 30.4999 44.8079 32.9999 43.8079L35.7499 42.7079L38.0999 43.9579L40.4499 45.2579L42.8499 42.8579L45.2499 40.4579L43.9499 38.1079L42.6999 35.7579L43.7999 33.0079C44.7999 30.5079 45.0999 30.2079 47.0999 29.6079C48.2499 29.2079 49.5499 28.8579 49.8999 28.7079C50.3499 28.5579 50.4999 27.5579 50.3999 25.1579L50.2499 21.7579L47.8999 21.1579C45.0499 20.4579 44.4999 20.1579 44.4999 19.2079C44.4999 18.8079 44.0499 17.5579 43.4999 16.4579L42.4499 14.5079L43.7499 12.6579C44.4499 11.6079 44.9999 10.5579 44.9999 10.2579C44.9999 9.95789 43.9499 8.65789 42.5999 7.35788L40.2499 5.00788L38.0999 6.45789L35.8999 7.90789L32.9499 6.55788C30.2499 5.40789 29.8999 5.05788 29.4499 3.25788C29.1999 2.15788 28.8499 0.957886 28.7499 0.607883C28.5999 0.207886 27.4499 0.00788498 25.2499 0.00788498C22.2999 0.00788498 21.9499 0.107883 21.5499 1.10788ZM27.9999 4.05788C28.3499 5.55788 28.9499 6.70789 29.4499 6.85788C29.8999 7.00788 31.4999 7.70789 33.0999 8.35788L35.8999 9.60788L38.0999 8.30788L40.2999 7.00788L41.8999 8.65789L43.4999 10.3079L42.1499 12.2579C40.9499 14.0079 40.8999 14.3079 41.4499 15.7079C41.7999 16.5579 42.4999 18.2579 42.9499 19.5079C43.6999 21.5079 43.9999 21.7579 45.9999 22.2579C48.2499 22.8079 48.2499 22.8079 48.3999 25.1079C48.5499 27.4079 48.5499 27.4579 46.6499 27.9579C45.5999 28.2579 44.4499 28.5079 44.1499 28.5079C43.7999 28.5079 43.4999 28.7579 43.4999 29.0579C43.4999 29.3579 42.8999 31.0579 42.1999 32.8079L40.8999 36.0579L42.1999 38.2079L43.4499 40.3579L41.8499 41.9079L40.2499 43.4579L38.2499 42.2079C36.0499 40.8579 36.0999 40.8579 31.7499 42.7079C28.9499 43.8579 28.6999 44.1079 27.9999 46.3579C27.2999 48.6579 27.1999 48.7579 25.1499 48.9079C23.0499 49.0579 23.0499 49.0579 22.4999 46.9079C22.1999 45.7079 21.8999 44.5579 21.8499 44.3579C21.7499 44.0079 17.0499 41.8079 14.8999 41.1579C14.4499 41.0079 13.2499 41.5079 12.1999 42.2079L10.2999 43.5079L8.64992 41.9079L6.99992 40.3079L8.29992 38.1079L9.59992 35.9079L8.34992 33.1079C7.69992 31.5079 6.99992 29.9079 6.84992 29.4579C6.69992 28.9579 5.54992 28.3579 4.04992 28.0079L1.49992 27.4079V25.2079C1.49992 23.0579 1.54992 23.0579 3.64992 22.5079C4.79992 22.2079 5.99992 21.8579 6.29992 21.7579C6.59992 21.6579 7.04992 20.9579 7.19992 20.1579C7.39992 19.4079 7.99992 17.8079 8.54992 16.6579L9.54992 14.5579L8.29992 12.4079L7.04992 10.2579L8.59992 8.65789L10.1499 7.05788L12.3499 8.35788L14.5999 9.65789L16.6499 8.60788C17.7999 8.05788 19.3999 7.40789 20.1499 7.20789C20.9499 7.05788 21.6499 6.60788 21.7499 6.30788C21.8499 6.00788 22.1999 4.80788 22.4999 3.60788C23.0499 1.55788 23.0499 1.50788 25.1999 1.50788H27.3999L27.9999 4.05788Z" fill="currentColor"/>
<path d="M23.5 8.00781C22.95 8.55781 22.5 9.45781 22.5 9.95781C22.5 10.9578 24.25 12.5078 25.35 12.5078C26.25 12.5078 28 10.6578 28 9.75781C28 8.80781 26.2 7.00781 25.25 7.00781C24.85 7.00781 24.05 7.45781 23.5 8.00781Z" fill="currentColor"/>
<path d="M20.2507 14.7061C9.70071 19.6061 12.3007 35.4561 23.8507 36.8061C29.2507 37.4561 34.7507 33.9061 36.2507 28.8061C37.2007 25.6561 37.2007 24.1561 36.2507 21.4561C35.1007 18.3061 33.3507 16.2561 30.4007 14.8061C27.0507 13.1061 23.6507 13.1061 20.2507 14.7061ZM29.2507 15.9561C33.6507 17.9561 36.2507 23.0561 35.0507 27.4561C34.0007 31.5561 30.5507 34.6561 26.4007 35.3061C22.4507 35.9561 17.7507 33.2561 15.9507 29.2561C12.2007 21.0561 21.0507 12.2061 29.2507 15.9561Z" fill="currentColor"/>
<path d="M7.8 23.6078C7.35 24.2078 7 25.0078 7 25.3578C7 26.2578 8.85 28.0078 9.75 28.0078C10.7 28.0078 12.5 26.2078 12.5 25.2578C12.5 24.2078 10.7 22.5078 9.55 22.5078C9 22.5078 8.2 23.0078 7.8 23.6078Z" fill="currentColor"/>
<path d="M38.8481 23.4147C37.6481 24.7147 37.7981 26.3647 39.1981 27.2647C41.1481 28.5647 42.9981 27.4147 42.9981 24.9147C42.9981 22.6647 40.3481 21.7647 38.8481 23.4147Z" fill="currentColor"/>
<path d="M23.2488 39.0094C21.3988 41.0594 23.6488 44.1094 26.1988 42.9594C27.7488 42.2594 28.1988 40.6094 27.1988 39.1594C26.2988 37.7594 24.4488 37.6594 23.2488 39.0094Z" fill="currentColor"/>
<path d="M55.2496 32.1559C54.9996 33.4559 54.4996 34.0559 53.1496 34.7059C51.5496 35.4559 51.3496 35.4559 49.9996 34.6559C48.5496 33.8059 48.4996 33.8059 46.9996 35.2559C45.2996 36.9059 45.1996 37.5559 46.2496 39.2059C47.3996 40.9559 46.0996 43.8059 43.9996 44.2559C42.4996 44.6059 42.4496 44.6559 42.5996 47.1559C42.7496 49.6059 42.8496 49.7559 44.2496 50.0059C46.3496 50.3559 47.6996 53.1559 46.6996 55.1059C45.7496 56.9559 45.7496 57.0559 47.7496 58.6559C49.4496 60.0059 49.5496 60.0059 50.7496 59.2059C51.8496 58.5059 52.3496 58.4559 53.9496 58.9559C55.4496 59.4059 55.9496 59.8559 56.2996 61.1059C56.6996 62.5559 56.9996 62.7559 58.6996 62.9059C60.8996 63.1059 61.9996 62.3559 61.9996 60.6559C61.9996 58.8559 64.8996 57.7059 67.2996 58.6059C68.9496 59.2059 69.0996 59.1559 70.5996 57.6559L72.1996 56.0559L71.2996 54.4059C70.4496 52.8559 70.4496 52.5559 71.1496 50.9559C71.6996 49.5559 72.2496 49.0559 73.4496 48.8559C74.9996 48.5059 75.0496 48.4559 74.8996 46.1559C74.7496 43.9559 74.6496 43.7559 73.0996 43.3059C70.8496 42.7059 69.5496 40.1559 70.3996 38.2559C71.2996 36.3059 71.1496 35.9059 69.2996 34.4059C67.5996 33.0559 67.5996 33.0559 66.3996 33.9559C65.3496 34.8059 64.9496 34.8559 63.3496 34.3559C61.8996 33.9059 61.3996 33.4059 61.0996 32.2559C60.6996 30.8559 60.4996 30.7559 58.0996 30.6059C55.5496 30.4559 55.5496 30.4559 55.2496 32.1559ZM59.7496 33.4559C59.9996 34.7059 60.4496 35.0559 62.7496 35.7559C65.1996 36.5559 65.4996 36.5559 66.5496 35.8059C67.5996 35.1059 67.7496 35.1059 68.5996 35.8059C69.3996 36.5559 69.3996 36.7559 68.6996 38.0559C68.0496 39.4059 68.0496 39.6559 69.2496 41.9559C70.1996 43.9059 70.7996 44.4559 71.8496 44.6059C73.9996 44.8559 74.0496 46.7559 71.9996 47.6059C70.7496 48.1059 70.1496 48.8559 69.4496 50.7559C68.5996 53.0059 68.5996 53.3059 69.2996 54.4059C69.9496 55.3559 69.9496 55.7059 69.3996 56.4059C69.0496 56.8559 68.7496 57.3059 68.6996 57.4059C68.6496 57.5059 67.9996 57.2059 67.2996 56.7559C66.0496 55.9059 65.8996 55.9059 63.5496 57.0559C61.6996 57.9059 60.9996 58.5559 60.6496 59.7059C60.0496 61.9059 57.9996 61.9059 57.3996 59.7559C57.0996 58.5059 56.5996 58.1059 54.5496 57.3559C52.1496 56.5059 51.9496 56.5059 50.7496 57.3059C49.5496 58.1059 49.3496 58.1059 48.6496 57.3559C47.9996 56.7059 47.9496 56.3059 48.4496 55.1559C48.9496 53.9559 48.8496 53.3559 47.9996 51.3559C47.1496 49.4559 46.6496 48.9059 45.4496 48.6559C43.3996 48.2559 43.3996 46.1559 45.4496 45.4559C46.6496 45.0559 47.0996 44.4059 47.7496 42.4559C48.5496 40.1559 48.5496 39.9059 47.7496 38.6559C46.9996 37.5059 46.9996 37.3059 47.6496 36.6059C48.2996 35.9559 48.6496 35.9559 49.9996 36.5059C51.1496 37.0059 51.7996 37.0059 52.6496 36.6059C53.2496 36.2559 54.3496 35.8059 55.1496 35.5059C56.0996 35.1559 56.4996 34.7059 56.4996 33.8559C56.4996 32.3559 56.8496 32.0059 58.2996 32.0059C59.1496 32.0059 59.4996 32.3559 59.7496 33.4559Z" fill="currentColor"/>
<path d="M54.6006 40.0109C48.2006 43.9109 50.9506 54.2109 58.4006 54.2109C61.7006 54.2109 63.9506 52.8109 65.4006 49.9109C66.8506 47.0109 66.5506 44.2609 64.6506 41.9609C62.0506 38.9109 57.8006 38.0609 54.6006 40.0109Z" fill="currentColor"/>
</svg>
