<svg width="40" height="40" viewBox="0 0 40 40" fill="none" xmlns="http://www.w3.org/2000/svg">
<rect x="0.5" y="0.5" width="39" height="39" rx="7.5" fill="#FBFBFB"/>
<rect x="0.5" y="0.5" width="39" height="39" rx="7.5" stroke="#EFEFEF"/>
<path d="M19.9865 11.5859C17.6079 11.5859 15.6797 13.5241 15.6797 15.9148C15.6797 18.3056 17.6079 20.2438 19.9865 20.2438C22.365 20.2438 24.2932 18.3056 24.2932 15.9148C24.2932 13.5241 22.365 11.5859 19.9865 11.5859ZM19.9865 17.7044C19.0032 17.7044 18.2061 16.9031 18.2061 15.9149C18.2061 14.9266 19.0032 14.1254 19.9865 14.1254C20.9697 14.1254 21.7668 14.9266 21.7668 15.9149C21.7668 16.9031 20.9697 17.7044 19.9865 17.7044Z" fill="currentColor"/>
<path d="M21.5059 23.6882C23.2301 23.3351 24.2633 22.5144 24.318 22.4704C24.8225 22.0637 24.9035 21.3229 24.4989 20.8157C24.0943 20.3086 23.3574 20.2271 22.8528 20.6338C22.8421 20.6425 21.7401 21.4921 19.9269 21.4934C18.1138 21.4921 16.9885 20.6425 16.9779 20.6338C16.4732 20.2271 15.7363 20.3086 15.3317 20.8157C14.9271 21.3229 15.0082 22.0637 15.5127 22.4704C15.5681 22.515 16.6439 23.3571 18.4164 23.7019L15.9461 26.2968C15.4972 26.7647 15.5107 27.5098 15.9763 27.9611C16.2035 28.1813 16.4964 28.2908 16.789 28.2908C17.0958 28.2908 17.4023 28.1703 17.6321 27.9307L19.927 25.4735L22.4537 27.9466C22.9115 28.4061 23.6528 28.4053 24.1098 27.9453C24.5667 27.4853 24.5661 26.7401 24.1085 26.2808L21.5059 23.6882Z" fill="currentColor"/>
</svg>
