<svg width="40" height="40" viewBox="0 0 40 40" fill="none" xmlns="http://www.w3.org/2000/svg">
<rect x="0.5" y="0.5" width="39" height="39" rx="7.5" fill="#FBFBFB"/>
<rect x="0.5" y="0.5" width="39" height="39" rx="7.5" stroke="#EFEFEF"/>
<path d="M10.8967 18.7969L26.2854 12.1462C27.009 11.8335 27.7932 12.4421 27.6698 13.2207L25.5657 26.4967C25.4358 27.3167 24.4208 27.6304 23.8509 27.0266L20.398 23.3691C19.7208 22.6518 19.6678 21.548 20.273 20.7691L22.711 17.6313C22.8503 17.4519 22.6303 17.216 22.4416 17.3425L17.5943 20.5944C16.7717 21.1462 15.7737 21.3732 14.7933 21.2314L11.1503 20.7045C10.1523 20.5602 9.97107 19.1969 10.8967 18.7969Z" fill="currentColor"/>
</svg>
