<svg width="40" height="40" viewBox="0 0 40 40" fill="none" xmlns="http://www.w3.org/2000/svg">
<rect x="0.5" y="0.5" width="39" height="39" rx="7.5" fill="#FBFBFB"/>
<rect x="0.5" y="0.5" width="39" height="39" rx="7.5" stroke="#EFEFEF"/>
<path d="M29.5035 26.381H27.222C26.3588 26.381 26.0992 25.682 24.5511 24.1339C23.2 22.8313 22.6292 22.6686 22.2868 22.6686C21.8145 22.6686 21.6847 22.7984 21.6847 23.4505V25.5021C21.6847 26.0573 21.5049 26.3825 20.0553 26.3825C18.6485 26.288 17.2842 25.8606 16.0749 25.1355C14.8656 24.4104 13.8459 23.4084 13.0997 22.212C11.3283 20.0071 10.0957 17.4193 9.5 14.6544C9.5 14.312 9.62979 14.0023 10.2819 14.0023H12.5618C13.1482 14.0023 13.3593 14.2635 13.5892 14.8655C14.6963 18.1244 16.5853 20.9579 17.3516 20.9579C17.6456 20.9579 17.7738 20.8281 17.7738 20.0947V16.7389C17.6768 15.208 16.8637 15.0782 16.8637 14.5246C16.8741 14.3786 16.941 14.2424 17.0502 14.1449C17.1594 14.0474 17.3023 13.9963 17.4485 14.0023H21.0326C21.5221 14.0023 21.6847 14.2463 21.6847 14.8327V19.3613C21.6847 19.8508 21.8958 20.0134 22.0428 20.0134C22.3368 20.0134 22.5635 19.8508 23.1015 19.3128C24.2569 17.9038 25.2009 16.334 25.9037 14.6529C25.9756 14.4509 26.1115 14.278 26.2908 14.1606C26.4701 14.0431 26.6829 13.9876 26.8967 14.0023H29.1782C29.8616 14.0023 30.007 14.3448 29.8616 14.8327C29.032 16.6911 28.0055 18.4552 26.7997 20.0947C26.5542 20.47 26.4557 20.6655 26.7997 21.1049C27.0265 21.4473 27.8256 22.1151 28.3635 22.7499C29.1452 23.5297 29.7944 24.4319 30.2853 25.4208C30.4808 26.0557 30.154 26.381 29.5035 26.381Z" fill="currentColor"/>
</svg>
