<svg width="140" height="140" viewBox="0 0 140 140" fill="none" xmlns="http://www.w3.org/2000/svg">
<circle cx="70" cy="70" r="70" fill="currentColor"/>
<path d="M66.6008 78.176C66.4088 74.592 66.2168 71.008 66.0888 67.36C76.1368 66.4 83.7528 64.736 83.7528 59.872C83.7528 56.16 78.0568 54.112 71.4008 54.112C64.4248 54.112 59.3688 56.288 56.8088 60.384C53.6728 59.296 50.5368 58.144 47.4008 56.992C51.1128 50.784 59.5608 46.24 71.4008 46.24C84.7128 46.24 94.1848 51.872 94.1848 59.296C94.1848 67.36 84.8408 70.56 74.6648 71.648C74.6648 73.824 74.6008 76 74.5368 78.176H66.6008ZM65.4488 92V83.104H75.6888V92H65.4488Z" fill="white"/>
</svg>
