<svg width="117" height="118" viewBox="0 0 117 118" fill="none" xmlns="http://www.w3.org/2000/svg">
<path fill-rule="evenodd" clip-rule="evenodd" d="M116.833 59.0003C116.833 91.2169 90.716 117.334 58.4994 117.334C26.2827 117.334 0.166016 91.2169 0.166016 59.0003C0.166016 26.7837 26.2827 0.666992 58.4994 0.666992C90.716 0.666992 116.833 26.7837 116.833 59.0003ZM52.666 88.167C52.666 84.9453 55.2777 82.3337 58.4994 82.3337C61.721 82.3337 64.3327 84.9453 64.3327 88.167C64.3327 91.3887 61.721 94.0003 58.4994 94.0003C55.2777 94.0003 52.666 91.3887 52.666 88.167ZM54.1244 70.667C54.1244 73.0832 56.0831 75.042 58.4994 75.042C60.9156 75.042 62.8744 73.0832 62.8744 70.667L62.8744 29.8337C62.8744 27.4174 60.9156 25.4587 58.4994 25.4587C56.0831 25.4587 54.1244 27.4174 54.1244 29.8337L54.1244 70.667Z" fill="currentColor"/>
</svg>
