<svg width="24" height="24" viewBox="0 0 24 24" fill="none" xmlns="http://www.w3.org/2000/svg">
<path d="M10 9C10 9.55228 9.55228 10 9 10C8.44772 10 8 9.55228 8 9C8 8.44772 8.44772 8 9 8C9.55228 8 10 8.44772 10 9Z" fill="currentColor"/>
<path d="M16 15C16 15.5523 15.5523 16 15 16C14.4477 16 14 15.5523 14 15C14 14.4477 14.4477 14 15 14C15.5523 14 16 14.4477 16 15Z" fill="currentColor"/>
<path d="M10.054 2.66197C11.1752 1.70643 12.8244 1.70643 13.9457 2.66197L14.6283 3.24369C15.1088 3.65316 15.7062 3.90062 16.3355 3.95084L17.2295 4.02218C18.698 4.13937 19.8642 5.3055 19.9814 6.77403L20.0527 7.66805C20.1029 8.29735 20.3504 8.89477 20.7599 9.37526L21.3416 10.0579C22.2971 11.1791 22.2971 12.8283 21.3416 13.9496L20.7599 14.6322C20.3504 15.1127 20.1029 15.7101 20.0527 16.3394L19.9814 17.2334C19.8642 18.702 18.698 19.8681 17.2295 19.9853L16.3355 20.0566C15.7062 20.1068 15.1088 20.3543 14.6283 20.7638L13.9457 21.3455C12.8244 22.301 11.1752 22.301 10.054 21.3455L9.37135 20.7638C8.89086 20.3543 8.29344 20.1068 7.66414 20.0566L6.77012 19.9853C5.3016 19.8681 4.13546 18.702 4.01827 17.2334L3.94693 16.3394C3.89671 15.7101 3.64925 15.1127 3.23978 14.6322L2.65806 13.9496C1.70252 12.8283 1.70252 11.1791 2.65806 10.0579L3.23978 9.37526C3.64925 8.89477 3.89671 8.29735 3.94693 7.66805L4.01827 6.77403C4.13546 5.3055 5.3016 4.13937 6.77012 4.02218L7.66414 3.95084C8.29344 3.90062 8.89086 3.65316 9.37135 3.24369L10.054 2.66197Z" stroke="currentColor" stroke-width="1.5"/>
<path d="M9 15L15 9" stroke="currentColor" stroke-width="1.5" stroke-linecap="round"/>
</svg>
