<svg width="32" height="32" viewBox="0 0 32 32" fill="none" xmlns="http://www.w3.org/2000/svg">
<path d="M14.7084 11.3712C15.0989 10.9806 15.0989 10.3475 14.7084 9.95696C14.3179 9.56643 13.6847 9.56643 13.2942 9.95696L7.96086 15.2903C7.7656 15.4856 7.66797 15.7415 7.66797 15.9974C7.66797 16.133 7.69495 16.2623 7.74385 16.3802C7.79265 16.4981 7.86499 16.6086 7.96086 16.7045L13.2942 22.0378C13.6847 22.4284 14.3179 22.4284 14.7084 22.0378C15.0989 21.6473 15.0989 21.0141 14.7084 20.6236L11.0822 16.9974H24.0013C24.5536 16.9974 25.0013 16.5497 25.0013 15.9974C25.0013 15.4451 24.5536 14.9974 24.0013 14.9974H11.0822L14.7084 11.3712Z" fill="currentColor"/>
</svg>
