<svg width="16" height="16" viewBox="0 0 16 16" fill="none" xmlns="http://www.w3.org/2000/svg">
<g clip-path="url(#clip0_3974_157885)">
<path d="M2.02065 6.66634L13.9767 6.66634C14.6568 6.66634 14.9239 5.76539 14.358 5.38007L8.76125 1.56884C8.29948 1.2544 7.69791 1.2544 7.23615 1.56884L1.63937 5.38007C1.07352 5.76539 1.34058 6.66634 2.02065 6.66634Z" stroke="#202020" stroke-width="1.5"/>
<rect x="2.66797" y="6.66699" width="3.33333" height="5.33333" stroke="#202020" stroke-width="1.5"/>
<rect x="10" y="6.66699" width="3.33333" height="5.33333" stroke="#202020" stroke-width="1.5"/>
<path d="M12.9226 12C13.1751 12 13.406 12.1427 13.5189 12.3685L14.1856 13.7019C14.4072 14.1451 14.0849 14.6667 13.5893 14.6667L2.41332 14.6667C1.91774 14.6667 1.59541 14.1451 1.81704 13.7019L2.48371 12.3685C2.59663 12.1427 2.82748 12 3.07999 12L12.9226 12Z" stroke="#202020" stroke-width="1.5"/>
</g>
<defs>
<clipPath id="clip0_3974_157885">
<rect width="16" height="16" fill="white"/>
</clipPath>
</defs>
</svg>
