<svg width="32" height="33" viewBox="0 0 32 33" fill="none" xmlns="http://www.w3.org/2000/svg">
<path d="M24.3181 12.4643L23.5729 12.5489L24.3181 12.4643ZM24.9143 17.7177L25.6595 17.6332L24.9143 17.7177ZM7.08307 17.7177L6.33785 17.6332L7.08307 17.7177ZM7.67932 12.4643L8.42453 12.5489L7.67932 12.4643ZM5.92908 20.3269L5.35797 19.8407H5.35797L5.92908 20.3269ZM26.0683 20.3269L25.4972 20.813L26.0683 20.3269ZM19.0253 6.32894H18.2753C18.2753 6.64953 18.4791 6.93466 18.7823 7.03851L19.0253 6.32894ZM12.9721 6.32894L13.215 7.03851C13.5183 6.93466 13.7221 6.64953 13.7221 6.32894H12.9721ZM20.701 27.4273C20.8464 27.0394 20.6498 26.6071 20.2619 26.4618C19.874 26.3164 19.4418 26.513 19.2964 26.9009L20.701 27.4273ZM12.701 26.9009C12.5556 26.513 12.1234 26.3164 11.7355 26.4618C11.3476 26.6071 11.151 27.0394 11.2964 27.4273L12.701 26.9009ZM23.7016 23.7474H8.29578V25.2474H23.7016V23.7474ZM23.5729 12.5489L24.1691 17.8023L25.6595 17.6332L25.0633 12.3797L23.5729 12.5489ZM7.82828 17.8023L8.42453 12.5489L6.9341 12.3797L6.33785 17.6332L7.82828 17.8023ZM6.50019 20.813C7.23939 19.9446 7.70322 18.9042 7.82828 17.8023L6.33785 17.6332C6.24813 18.4236 5.91385 19.1877 5.35797 19.8407L6.50019 20.813ZM24.1691 17.8023C24.2942 18.9042 24.758 19.9446 25.4972 20.813L26.6394 19.8407C26.0835 19.1877 25.7493 18.4236 25.6595 17.6332L24.1691 17.8023ZM8.29578 23.7474C7.33601 23.7474 6.63333 23.2702 6.30201 22.6864C5.9781 22.1156 5.98559 21.4176 6.50019 20.813L5.35797 19.8407C4.40986 20.9546 4.38178 22.3418 4.99744 23.4267C5.6057 24.4985 6.81771 25.2474 8.29578 25.2474V23.7474ZM23.7016 25.2474C25.1797 25.2474 26.3917 24.4985 27 23.4267C27.6156 22.3418 27.5875 20.9546 26.6394 19.8407L25.4972 20.813C26.0118 21.4176 26.0193 22.1156 25.6954 22.6864C25.3641 23.2702 24.6614 23.7474 23.7016 23.7474V25.2474ZM19.7753 6.32894V6.19066H18.2753V6.32894H19.7753ZM25.0633 12.3797C24.7037 9.2112 22.35 6.67455 19.2682 5.61938L18.7823 7.03851C21.4136 7.93942 23.2895 10.0519 23.5729 12.5489L25.0633 12.3797ZM13.7221 6.32894V6.19066H12.2221V6.32894H13.7221ZM8.42453 12.5489C8.70793 10.0519 10.5838 7.93942 13.215 7.03851L12.7292 5.61938C9.64736 6.67455 7.29372 9.2112 6.9341 12.3797L8.42453 12.5489ZM15.9987 3.91406C17.256 3.91406 18.2753 4.93333 18.2753 6.19066H19.7753C19.7753 4.1049 18.0845 2.41406 15.9987 2.41406V3.91406ZM15.9987 2.41406C13.9129 2.41406 12.2221 4.1049 12.2221 6.19066H13.7221C13.7221 4.93333 14.7414 3.91406 15.9987 3.91406V2.41406ZM19.2964 26.9009C18.8281 28.1504 17.545 29.0807 15.9987 29.0807V30.5807C18.1459 30.5807 20.0048 29.285 20.701 27.4273L19.2964 26.9009ZM15.9987 29.0807C14.4524 29.0807 13.1693 28.1504 12.701 26.9009L11.2964 27.4273C11.9926 29.285 13.8515 30.5807 15.9987 30.5807V29.0807Z" fill="currentColor"/>
</svg>
