<svg width="24" height="24" viewBox="0 0 24 24" fill="none" xmlns="http://www.w3.org/2000/svg">
<path fill-rule="evenodd" clip-rule="evenodd" d="M8.39728 5.25H15.6013C16.7637 3.67982 15.1976 1.48227 13.2522 2.10985L12.3244 2.40914C12.1132 2.47728 11.8854 2.47728 11.6741 2.40914L10.7464 2.10985C8.80095 1.48227 7.23483 3.67982 8.39728 5.25ZM15.4931 6.75H8.50545C7.18618 7.48048 6.1555 8.70013 5.68355 10.2103L4.43355 14.2104C3.22618 18.0739 6.11259 22 10.1604 22H11.1264C10.7309 21.4331 10.499 20.7436 10.499 20C10.499 19.2564 10.7309 18.5669 11.1264 18C10.7309 17.4331 10.499 16.7436 10.499 16C10.499 14.067 12.066 12.5 13.999 12.5H19.0305L18.315 10.2104C17.8431 8.70013 16.8124 7.48048 15.4931 6.75ZM13.999 14C12.8945 14 11.999 14.8954 11.999 16C11.999 17.1046 12.8945 18 13.999 18C12.8945 18 11.999 18.8954 11.999 20C11.999 21.1046 12.8945 22 13.999 22H19.999C21.1036 22 21.999 21.1046 21.999 20C21.999 18.8954 21.1036 18 19.999 18C21.1036 18 21.999 17.1046 21.999 16C21.999 14.8954 21.1036 14 19.999 14H19.3324H13.999Z" fill="currentColor"/>
</svg>
