<svg width="30" height="30" viewBox="0 0 30 30" fill="none" xmlns="http://www.w3.org/2000/svg">
<path d="M28.3346 17.666L24.416 14.8446C22.3797 13.3785 19.5969 13.53 17.7319 15.2085L12.2708 20.1235C10.4057 21.802 7.6229 21.9536 5.58664 20.4875L1.66797 17.666M7.0013 28.3327H23.0013C25.9468 28.3327 28.3346 25.9449 28.3346 22.9993V6.99935C28.3346 4.05383 25.9468 1.66602 23.0013 1.66602H7.0013C4.05578 1.66602 1.66797 4.05383 1.66797 6.99935V22.9993C1.66797 25.9449 4.05578 28.3327 7.0013 28.3327ZM13.668 10.3327C13.668 12.1736 12.1756 13.666 10.3346 13.666C8.49369 13.666 7.0013 12.1736 7.0013 10.3327C7.0013 8.49173 8.49369 6.99935 10.3346 6.99935C12.1756 6.99935 13.668 8.49173 13.668 10.3327Z" stroke="#979797" stroke-width="2" stroke-linecap="round"/>
</svg>
