<svg width="10" height="18" viewBox="0 0 10 18" fill="currentColor" xmlns="http://www.w3.org/2000/svg">
<path d="M4.98645 0.58667C2.60787 0.58667 0.679688 2.5248 0.679688 4.91552C0.679688 7.30631 2.60787 9.24457 4.98645 9.24457C7.36504 9.24457 9.29322 7.30631 9.29322 4.91552C9.29322 2.5248 7.36504 0.58667 4.98645 0.58667ZM4.98645 6.7051C4.00323 6.7051 3.20613 5.90386 3.20613 4.91559C3.20613 3.92732 4.00323 3.12613 4.98645 3.12613C5.96968 3.12613 6.76678 3.92732 6.76678 4.91559C6.76678 5.90386 5.96968 6.7051 4.98645 6.7051Z" fill="currentColor"/>
<path d="M6.5059 12.6896C8.23007 12.3366 9.26328 11.5159 9.31795 11.4718C9.82248 11.0651 9.90352 10.3244 9.49891 9.81719C9.09435 9.31007 8.35741 9.22861 7.85276 9.63524C7.8421 9.64392 6.7401 10.4936 4.92693 10.4948C3.11382 10.4936 1.98853 9.64392 1.97787 9.63524C1.47322 9.22861 0.736283 9.31007 0.331726 9.81719C-0.0728923 10.3244 0.00815492 11.0651 0.51268 11.4718C0.568088 11.5165 1.64395 12.3586 3.41644 12.7033L0.946143 15.2982C0.49721 15.7662 0.510708 16.5113 0.976281 16.9625C1.20352 17.1828 1.4964 17.2922 1.78903 17.2922C2.09584 17.2922 2.40234 17.1717 2.6321 16.9322L4.927 14.475L7.45369 16.9481C7.9115 17.4075 8.65281 17.4068 9.10976 16.9468C9.5667 16.4868 9.56615 15.7415 9.10846 15.2822L6.5059 12.6896Z" fill="currentColor"/>
<path d="M4.9269 10.4949C4.92304 10.4949 4.93069 10.495 4.9269 10.495C4.92312 10.495 4.93077 10.4949 4.9269 10.4949Z" fill="#979797"/>
</svg>
