<svg width="16" height="16" viewBox="0 0 16 16" fill="none" xmlns="http://www.w3.org/2000/svg">
<g clip-path="url(#clip0_4880_124021)">
<path d="M9.12273 6.72313L9.5432 6.99369L9.12273 6.72313ZM6.16732 6.0026C6.16732 6.27875 6.39118 6.5026 6.66732 6.5026C6.94346 6.5026 7.16732 6.27875 7.16732 6.0026H6.16732ZM7.50065 9.0026C7.50065 9.27875 7.72451 9.5026 8.00065 9.5026C8.27679 9.5026 8.50065 9.27875 8.50065 9.0026H7.50065ZM8.50065 10.6693C8.50065 10.3931 8.27679 10.1693 8.00065 10.1693C7.72451 10.1693 7.50065 10.3931 7.50065 10.6693H8.50065ZM7.50065 11.3359C7.50065 11.6121 7.72451 11.8359 8.00065 11.8359C8.27679 11.8359 8.50065 11.6121 8.50065 11.3359H7.50065ZM14.1673 8.0026C14.1673 11.4084 11.4064 14.1693 8.00065 14.1693V15.1693C11.9587 15.1693 15.1673 11.9606 15.1673 8.0026H14.1673ZM8.00065 14.1693C4.5949 14.1693 1.83398 11.4084 1.83398 8.0026H0.833984C0.833984 11.9606 4.04261 15.1693 8.00065 15.1693V14.1693ZM1.83398 8.0026C1.83398 4.59685 4.5949 1.83594 8.00065 1.83594V0.835938C4.04261 0.835938 0.833984 4.04456 0.833984 8.0026H1.83398ZM8.00065 1.83594C11.4064 1.83594 14.1673 4.59685 14.1673 8.0026H15.1673C15.1673 4.04456 11.9587 0.835938 8.00065 0.835938V1.83594ZM8.83398 6.0026C8.83398 6.16925 8.78559 6.32306 8.70225 6.45257L9.5432 6.99369C9.72726 6.70765 9.83398 6.36683 9.83398 6.0026H8.83398ZM7.16732 6.0026C7.16732 5.54237 7.54041 5.16927 8.00065 5.16927V4.16927C6.98813 4.16927 6.16732 4.99008 6.16732 6.0026H7.16732ZM8.00065 5.16927C8.46089 5.16927 8.83398 5.54237 8.83398 6.0026H9.83398C9.83398 4.99008 9.01317 4.16927 8.00065 4.16927V5.16927ZM7.50065 8.66927V9.0026H8.50065V8.66927H7.50065ZM8.70225 6.45257C8.6183 6.58304 8.51321 6.71802 8.38975 6.87146C8.27152 7.0184 8.13257 7.18684 8.00796 7.35811C7.76226 7.69579 7.50065 8.13643 7.50065 8.66927H8.50065C8.50065 8.46573 8.60084 8.24293 8.81657 7.94645C8.92266 7.80064 9.03933 7.65932 9.16885 7.49836C9.29313 7.3439 9.42791 7.17285 9.5432 6.99369L8.70225 6.45257ZM7.50065 10.6693V11.3359H8.50065V10.6693H7.50065Z" fill="currentColor"/>
</g>
<defs>
<clipPath id="clip0_4880_124021">
<rect width="16" height="16" fill="white"/>
</clipPath>
</defs>
</svg>
