<svg width="33" height="33" viewBox="0 0 33 33" fill="none" xmlns="http://www.w3.org/2000/svg">
<rect x="1.25" y="1.25" width="30.5" height="30.5" rx="9.25" stroke="#202020" stroke-width="1.5"/>
<path d="M20.25 11C20.25 12.7949 18.7949 14.25 17 14.25V15.75C19.6234 15.75 21.75 13.6234 21.75 11H20.25ZM17 14.25C15.2051 14.25 13.75 12.7949 13.75 11H12.25C12.25 13.6234 14.3766 15.75 17 15.75V14.25ZM13.75 11C13.75 9.20507 15.2051 7.75 17 7.75V6.25C14.3766 6.25 12.25 8.37665 12.25 11H13.75ZM17 7.75C18.7949 7.75 20.25 9.20507 20.25 11H21.75C21.75 8.37665 19.6234 6.25 17 6.25V7.75ZM23.25 21.5C23.25 22.0294 22.8014 22.7105 21.6143 23.3041C20.4722 23.8751 18.8418 24.25 17 24.25V25.75C19.0242 25.75 20.8938 25.3414 22.2852 24.6457C23.6316 23.9725 24.75 22.9036 24.75 21.5H23.25ZM17 24.25C15.1582 24.25 13.5278 23.8751 12.3857 23.3041C11.1986 22.7105 10.75 22.0294 10.75 21.5H9.25C9.25 22.9036 10.3684 23.9725 11.7148 24.6457C13.1062 25.3414 14.9758 25.75 17 25.75V24.25ZM10.75 21.5C10.75 20.9706 11.1986 20.2895 12.3857 19.6959C13.5278 19.1249 15.1582 18.75 17 18.75V17.25C14.9758 17.25 13.1062 17.6586 11.7148 18.3543C10.3684 19.0275 9.25 20.0964 9.25 21.5H10.75ZM17 18.75C18.8418 18.75 20.4722 19.1249 21.6143 19.6959C22.8014 20.2895 23.25 20.9706 23.25 21.5H24.75C24.75 20.0964 23.6316 19.0275 22.2852 18.3543C20.8938 17.6586 19.0242 17.25 17 17.25V18.75Z" fill="#202020"/>
</svg>
